<svg width="48" height="47" viewBox="0 0 48 47" fill="none" xmlns="http://www.w3.org/2000/svg">
<g clip-path="url(#clip0_624_5753)">
<rect x="-15.4668" y="31" width="71" height="46" fill="#1B9B32"/>
<rect x="-15.4668" y="-10" width="71" height="45" fill="white"/>
<rect x="-15.4668" y="-31" width="71" height="46" fill="#CD3141"/>
<path d="M24.0332 18L24.5945 19.7275H26.4108L24.9414 20.7951L25.5027 22.5225L24.0332 21.4549L22.5637 22.5225L23.125 20.7951L21.6556 19.7275H23.4719L24.0332 18Z" fill="#D81D35"/>
<path d="M19.0332 25L19.5945 26.7275H21.4108L19.9414 27.7951L20.5027 29.5225L19.0332 28.4549L17.5637 29.5225L18.125 27.7951L16.6556 26.7275H18.4719L19.0332 25Z" fill="#D81D35"/>
<path d="M29.0332 25L29.5945 26.7275H31.4108L29.9414 27.7951L30.5027 29.5225L29.0332 28.4549L27.5637 29.5225L28.125 27.7951L26.6556 26.7275H28.4719L29.0332 25Z" fill="#D81D35"/>
</g>
<defs>
<clipPath id="clip0_624_5753">
<rect x="0.533203" width="47" height="47" rx="23.5" fill="white"/>
</clipPath>
</defs>
</svg>
